<svg width="60" height="55" viewBox="0 0 60 55" fill="none" xmlns="http://www.w3.org/2000/svg">
<path d="M8.10338 42.959V44.9767H2.01771V47.987H8.10338V49.9884H2.01771V52.9987H8.10338V55.0001H0V42.959H8.10338ZM11.732 42.959H13.7497V52.9987H19.8354V55.0001H11.732V42.959ZM26.995 42.959C27.8411 42.959 28.6222 43.1217 29.3544 43.4309C30.0866 43.74 30.7375 44.1794 31.2908 44.7326L29.8588 46.1483C29.0615 45.3672 28.1015 44.9767 26.995 44.9767C26.4255 44.9767 25.9048 45.0743 25.4166 45.2859C24.9285 45.4974 24.4891 45.774 24.1311 46.1483C23.7569 46.5062 23.464 46.9293 23.2525 47.4175C23.0409 47.9056 22.927 48.4263 22.927 48.9796C22.927 49.5328 23.0409 50.0535 23.2525 50.5417C23.464 51.0298 23.7569 51.4529 24.1149 51.8271C24.4891 52.1851 24.9122 52.478 25.4003 52.6895C25.9048 52.8848 26.4255 52.9987 26.995 52.9987C28.1015 52.9987 29.0452 52.6082 29.8588 51.8271L31.2908 53.2428C30.7375 53.796 30.0866 54.2191 29.3544 54.5283C28.6222 54.8537 27.8411 55.0001 26.995 55.0001C26.1489 55.0001 25.3678 54.8537 24.6356 54.5283C23.8871 54.2028 23.2525 53.7798 22.6992 53.2428C22.1297 52.6895 21.6904 52.0549 21.3812 51.3227C21.0558 50.5905 20.893 49.8094 20.893 48.9796C20.893 48.166 21.0558 47.4012 21.3812 46.669C21.6904 45.9367 22.1297 45.2859 22.6992 44.7326C23.2525 44.1956 23.8871 43.7563 24.6356 43.4309C25.3678 43.1217 26.1489 42.959 26.995 42.959ZM39.1501 42.959C40.8423 42.959 42.2742 43.5448 43.4458 44.7326C44.6499 45.9042 45.252 47.3361 45.252 48.9796C45.252 50.6556 44.6499 52.0875 43.4458 53.2428C42.2742 54.4144 40.8423 55.0001 39.1501 55.0001C37.4741 55.0001 36.0421 54.4144 34.8543 53.2428C33.6664 52.0712 33.0644 50.6556 33.0644 48.9796C33.0644 47.3361 33.6664 45.9042 34.8543 44.7326C36.0259 43.5448 37.4578 42.959 39.1501 42.959ZM39.1501 44.9767C38.0436 44.9767 37.0835 45.3672 36.2699 46.1483C35.4889 46.9456 35.0984 47.8894 35.0984 48.9796C35.0984 50.0861 35.4889 51.0298 36.2699 51.8271C37.0835 52.6082 38.0436 52.9987 39.1501 52.9987C40.2565 52.9987 41.2166 52.6082 42.0139 51.8271C42.7949 51.0298 43.2017 50.0861 43.2017 48.9796C43.2017 47.8894 42.7949 46.9456 42.0139 46.1483C41.2166 45.3672 40.2565 44.9767 39.1501 44.9767ZM49.32 47.808V55.0001H47.3022V42.959L53.3716 48.9796L59.4736 42.959V55.0001H57.4233V47.808L53.3716 51.8271L49.32 47.808Z" fill="#FEFEFE"/>
<path fillRule="evenodd" clipRule="evenodd" d="M33.5851 0.017445C34.1709 0.0825324 34.0407 0.375425 33.8292 0.635775L33.8454 0.733406C35.2123 0.831037 37.0022 0.619503 37.5554 1.2541C37.8158 1.547 37.4252 2.45822 37.1323 2.84875C37.1486 2.7023 37.0835 2.39313 36.5303 2.39313C34.7729 2.39313 33.9756 3.4508 34.1058 5.04544L35.912 12.8234L32.8203 15.8825L29.7449 18.9416L23.5942 12.8234C23.5942 7.53504 26.995 -0.421895 33.5851 0.017445Z" fill="#FEFEFE"/>
<path fillRule="evenodd" clipRule="evenodd" d="M29.7451 29.0625L38.5482 37.8168H20.9583L29.7451 29.0625Z" fill="#FEFEFE"/>
<path fillRule="evenodd" clipRule="evenodd" d="M59.4737 24.0021V24.051V24.0835C59.4412 24.9622 58.7089 25.6619 57.8303 25.6781H57.814C55.5522 25.6781 51.3866 25.6781 48.5553 25.6781V29.4044H56.496V29.3881H57.7652H57.814C58.7252 29.3881 59.4574 30.1204 59.4737 31.0316V31.0641V31.0804V31.1129C59.4574 32.0079 58.7415 32.7238 57.8303 32.7401H57.7814H48.5553H38.5481L29.7451 24.0021L38.5481 15.2642H48.5553H57.7814H57.8303C58.7415 15.2804 59.4574 15.9964 59.4737 16.8913V16.9402V16.9727C59.4574 17.8839 58.7252 18.6162 57.814 18.6162H57.7652H56.496V18.5999H48.5553V22.3261C51.3866 22.3261 55.5522 22.3261 57.814 22.3261H57.8303C58.7089 22.3424 59.4412 23.0421 59.4737 23.9208V23.9533V23.9696V24.0021Z" fill="#FEFEFE"/>
<path fillRule="evenodd" clipRule="evenodd" d="M0.0164185 24.0021V24.051L0.0326903 24.0835C0.065234 24.9622 0.797467 25.6619 1.67615 25.6781C3.9542 25.6781 8.1198 25.6781 10.9348 25.6781V29.4044H3.01044V29.3881H1.74123H1.69242C0.781195 29.3881 0.0489621 30.1204 0.0164185 31.0316V31.0641V31.0804V31.1129C0.0489621 32.0079 0.764923 32.7238 1.65987 32.7401H1.72496H10.9348H20.9583L29.7451 24.0021L20.9583 15.2642H10.9348H1.72496H1.65987C0.764923 15.2804 0.0489621 15.9964 0.0164185 16.8913V16.9402V16.9727C0.0489621 17.8839 0.781195 18.6162 1.69242 18.6162H1.74123H3.01044V18.5999H10.9348V22.3261C8.1198 22.3261 3.9542 22.3261 1.67615 22.3261C0.797467 22.3424 0.065234 23.0421 0.0326903 23.9208L0.0164185 23.9533V23.9696V24.0021Z" fill="#FEFEFE"/>
<path d="M57.4072 11.0662H57.7652C58.0581 11.0662 58.2045 10.9523 58.2045 10.7245C58.2045 10.6106 58.1557 10.5292 58.0906 10.4804C58.0092 10.4316 57.9116 10.4153 57.7652 10.4153H57.4072V11.0662ZM57.1956 12.075V10.2363H57.7977C57.993 10.2363 58.1394 10.2851 58.237 10.3665C58.3509 10.4479 58.3998 10.5618 58.3998 10.7245C58.3998 10.8384 58.3672 10.9523 58.3021 11.0174C58.237 11.0987 58.1557 11.1638 58.0418 11.1964L58.416 12.075H58.2045L57.8303 11.2289H57.4072V12.075H57.1956Z" fill="#FEFEFE"/>
<path fillRule="evenodd" clipRule="evenodd" d="M57.6837 9.35742C58.6926 9.35742 59.4899 10.171 59.4899 11.1636C59.4899 12.1562 58.6926 12.9698 57.6837 12.9698C56.6911 12.9698 55.8775 12.1562 55.8775 11.1636C55.8775 10.171 56.6911 9.35742 57.6837 9.35742ZM57.6837 9.65032C58.5298 9.65032 59.197 10.3337 59.197 11.1636C59.197 11.9935 58.5298 12.6769 57.6837 12.6769C56.8538 12.6769 56.1867 11.9935 56.1867 11.1636C56.1867 10.3337 56.8538 9.65032 57.6837 9.65032Z" fill="#FEFEFE"/>
</svg>
