<svg width="138" height="43" viewBox="0 0 138 43" fill="none" xmlns="http://www.w3.org/2000/svg">
<g clipPath="url(#clip0_401_14)">
<path d="M17.5623 15.3702V19.9432H28.5982C28.3052 22.473 27.4263 24.4189 26.059 25.6838C24.4964 27.2405 21.9571 28.9919 17.5623 28.9919C10.8235 28.9919 5.54971 23.5432 5.54971 16.8297C5.54971 10.1161 10.7259 4.66748 17.5623 4.66748C21.1758 4.66748 23.9104 6.12694 25.8637 7.9756L29.0865 4.76477C26.352 2.13773 22.6408 0.0944824 17.5623 0.0944824C8.28428 0.0944824 0.471222 7.58641 0.471222 16.8297C0.471222 26.073 8.28428 33.5649 17.5623 33.5649C22.5431 33.5649 26.352 31.9108 29.2819 28.8946C32.3094 25.8784 33.2861 21.5973 33.2861 18.1919C33.2861 17.1216 33.1884 16.1486 33.0907 15.3702H17.5623Z" fill="#343434"/>
<path d="M46.9589 11.5754C41.0015 11.5754 36.0206 16.1484 36.0206 22.3755C36.0206 28.6025 40.9038 33.1755 46.9589 33.1755C53.014 33.1755 57.8972 28.6998 57.8972 22.4728C57.8972 16.1484 53.014 11.5754 46.9589 11.5754ZM46.9589 28.9917C43.6384 28.9917 40.8061 26.2674 40.8061 22.4728C40.8061 18.5809 43.6384 15.9538 46.9589 15.9538C50.2795 15.9538 53.1117 18.5809 53.1117 22.4728C53.1117 26.2674 50.2795 28.9917 46.9589 28.9917Z" fill="#343434"/>
<path d="M100.381 14.0079H100.185C99.111 12.743 97.0601 11.5754 94.4232 11.5754C88.9541 11.5754 84.2662 16.2457 84.2662 22.3755C84.2662 28.4079 88.9541 33.1755 94.4232 33.1755C97.0601 33.1755 99.111 32.008 100.185 30.7431H100.381V32.2999C100.381 36.3864 98.1344 38.6242 94.6185 38.6242C91.6886 38.6242 89.9307 36.581 89.1494 34.7323L85.0475 36.4837C86.2195 39.3053 89.4424 42.9053 94.7162 42.9053C100.283 42.9053 105.068 39.5972 105.068 31.6188V12.1592H100.576V14.0079H100.381ZM94.9115 28.9917C91.591 28.9917 89.1494 26.1701 89.1494 22.4728C89.1494 18.6782 91.6886 15.9538 94.9115 15.9538C98.1344 15.9538 100.674 18.7755 100.674 22.5701C100.771 26.2674 98.2321 28.9917 94.9115 28.9917Z" fill="#343434"/>
<path d="M71.277 11.5754C65.3196 11.5754 60.3387 16.1484 60.3387 22.3755C60.3387 28.6025 65.2219 33.1755 71.277 33.1755C77.3321 33.1755 82.2153 28.6998 82.2153 22.4728C82.2153 16.1484 77.3321 11.5754 71.277 11.5754ZM71.277 28.9917C67.9565 28.9917 65.1242 26.2674 65.1242 22.4728C65.1242 18.5809 67.9565 15.9538 71.277 15.9538C74.5976 15.9538 77.4298 18.5809 77.4298 22.4728C77.4298 26.2674 74.5976 28.9917 71.277 28.9917Z" fill="#343434"/>
<path d="M108.682 0.580811H113.37V33.2728H108.682V0.580811Z" fill="#343434"/>
<path d="M127.824 28.9917C125.382 28.9917 123.722 27.9215 122.55 25.6836L137.102 19.7484L136.614 18.4836C135.735 16.0511 132.902 11.5754 127.336 11.5754C121.769 11.5754 117.081 15.9538 117.081 22.3755C117.081 28.4079 121.671 33.1755 127.824 33.1755C132.805 33.1755 135.637 30.1593 136.907 28.4079L133.195 25.9755C131.926 27.8242 130.266 28.9917 127.824 28.9917ZM127.531 15.6619C129.484 15.6619 131.145 16.6349 131.633 17.9971L121.867 22.0836C121.769 17.6079 125.089 15.6619 127.531 15.6619Z" fill="#343434"/>
</g>
<defs>
<clipPath id="clip0_401_14">
<rect width="136.631" height="42.811" fill="white" transform="translate(0.471222 0.0944824)"/>
</clipPath>
</defs>
</svg>
