<svg width="96" height="96" viewBox="0 0 96 96" fill="none" xmlns="http://www.w3.org/2000/svg">
<path d="M12 72V48C12 38.4522 15.7928 29.2955 22.5442 22.5442C29.2955 15.7928 38.4522 12 48 12C57.5478 12 66.7045 15.7928 73.4558 22.5442C80.2072 29.2955 84 38.4522 84 48V72" stroke="#101010" strokeWidth="2" stroke-linecap="round" stroke-linejoin="round"/>
<path d="M84 76C84 78.1217 83.1571 80.1566 81.6569 81.6569C80.1566 83.1571 78.1217 84 76 84H72C69.8783 84 67.8434 83.1571 66.3431 81.6569C64.8429 80.1566 64 78.1217 64 76V64C64 61.8783 64.8429 59.8434 66.3431 58.3431C67.8434 56.8429 69.8783 56 72 56H84V76ZM12 76C12 78.1217 12.8429 80.1566 14.3431 81.6569C15.8434 83.1571 17.8783 84 20 84H24C26.1217 84 28.1566 83.1571 29.6569 81.6569C31.1571 80.1566 32 78.1217 32 76V64C32 61.8783 31.1571 59.8434 29.6569 58.3431C28.1566 56.8429 26.1217 56 24 56H12V76Z" stroke="#101010" strokeWidth="2" stroke-linecap="round" stroke-linejoin="round"/>
</svg>
