<svg width="24" height="24" viewBox="0 0 24 24" fill="none" xmlns="http://www.w3.org/2000/svg">
<path d="M9.22222 3H3.77778C3.34822 3 3 3.34822 3 3.77778V9.22222C3 9.65178 3.34822 10 3.77778 10H9.22222C9.65178 10 10 9.65178 10 9.22222V3.77778C10 3.34822 9.65178 3 9.22222 3Z" stroke="#343434" stroke-linecap="round" stroke-linejoin="round"/>
<path d="M9.22222 14H3.77778C3.34822 14 3 14.3482 3 14.7778V20.2222C3 20.6518 3.34822 21 3.77778 21H9.22222C9.65178 21 10 20.6518 10 20.2222V14.7778C10 14.3482 9.65178 14 9.22222 14Z" stroke="#343434" stroke-linecap="round" stroke-linejoin="round"/>
<path d="M20.2222 3H14.7778C14.3482 3 14 3.34822 14 3.77778V9.22222C14 9.65178 14.3482 10 14.7778 10H20.2222C20.6518 10 21 9.65178 21 9.22222V3.77778C21 3.34822 20.6518 3 20.2222 3Z" stroke="#343434" stroke-linecap="round" stroke-linejoin="round"/>
<path d="M20.2222 14H14.7778C14.3482 14 14 14.3482 14 14.7778V20.2222C14 20.6518 14.3482 21 14.7778 21H20.2222C20.6518 21 21 20.6518 21 20.2222V14.7778C21 14.3482 20.6518 14 20.2222 14Z" stroke="#343434" stroke-linecap="round" stroke-linejoin="round"/>
</svg>
