<svg width="13" height="13" viewBox="0 0 13 13" fill="none" xmlns="http://www.w3.org/2000/svg">
<g clipPath="url(#clip0_1_3351)">
<path d="M6.5 1.17051C8.23672 1.17051 8.44238 1.17812 9.12539 1.20859C9.76016 1.23652 10.1029 1.34316 10.3314 1.43203C10.6336 1.54883 10.852 1.69102 11.0779 1.91699C11.3064 2.14551 11.4461 2.36133 11.5629 2.66348C11.6518 2.89199 11.7584 3.2373 11.7863 3.86953C11.8168 4.55508 11.8244 4.76074 11.8244 6.49492C11.8244 8.23164 11.8168 8.4373 11.7863 9.12031C11.7584 9.75508 11.6518 10.0979 11.5629 10.3264C11.4461 10.6285 11.3039 10.8469 11.0779 11.0729C10.8494 11.3014 10.6336 11.441 10.3314 11.5578C10.1029 11.6467 9.75762 11.7533 9.12539 11.7812C8.43985 11.8117 8.23418 11.8193 6.5 11.8193C4.76328 11.8193 4.55762 11.8117 3.87461 11.7812C3.23984 11.7533 2.89707 11.6467 2.66856 11.5578C2.36641 11.441 2.14805 11.2988 1.92207 11.0729C1.69355 10.8443 1.55391 10.6285 1.43711 10.3264C1.34824 10.0979 1.2416 9.75254 1.21367 9.12031C1.1832 8.43477 1.17559 8.2291 1.17559 6.49492C1.17559 4.7582 1.1832 4.55254 1.21367 3.86953C1.2416 3.23477 1.34824 2.89199 1.43711 2.66348C1.55391 2.36133 1.69609 2.14297 1.92207 1.91699C2.15059 1.68848 2.36641 1.54883 2.66856 1.43203C2.89707 1.34316 3.24238 1.23652 3.87461 1.20859C4.55762 1.17812 4.76328 1.17051 6.5 1.17051ZM6.5 0C4.73535 0 4.51445 0.00761719 3.82129 0.0380859C3.13066 0.0685547 2.65586 0.180273 2.24453 0.340234C1.81543 0.507812 1.45234 0.728711 1.0918 1.0918C0.728711 1.45234 0.507813 1.81543 0.340234 2.24199C0.180273 2.65586 0.0685547 3.12812 0.0380859 3.81875C0.00761719 4.51445 0 4.73535 0 6.5C0 8.26465 0.00761719 8.48555 0.0380859 9.17871C0.0685547 9.86934 0.180273 10.3441 0.340234 10.7555C0.507813 11.1846 0.728711 11.5477 1.0918 11.9082C1.45234 12.2687 1.81543 12.4922 2.24199 12.6572C2.65586 12.8172 3.12813 12.9289 3.81875 12.9594C4.51191 12.9898 4.73281 12.9975 6.49746 12.9975C8.26211 12.9975 8.48301 12.9898 9.17617 12.9594C9.8668 12.9289 10.3416 12.8172 10.7529 12.6572C11.1795 12.4922 11.5426 12.2687 11.9031 11.9082C12.2637 11.5477 12.4871 11.1846 12.6521 10.758C12.8121 10.3441 12.9238 9.87187 12.9543 9.18125C12.9848 8.48809 12.9924 8.26719 12.9924 6.50254C12.9924 4.73789 12.9848 4.51699 12.9543 3.82383C12.9238 3.1332 12.8121 2.6584 12.6521 2.24707C12.4922 1.81543 12.2713 1.45234 11.9082 1.0918C11.5477 0.73125 11.1846 0.507812 10.758 0.342773C10.3441 0.182812 9.87188 0.0710937 9.18125 0.040625C8.48555 0.00761719 8.26465 0 6.5 0Z" fill="#656565"/>
<path d="M6.5 3.16113C4.65664 3.16113 3.16113 4.65664 3.16113 6.5C3.16113 8.34336 4.65664 9.83887 6.5 9.83887C8.34336 9.83887 9.83887 8.34336 9.83887 6.5C9.83887 4.65664 8.34336 3.16113 6.5 3.16113ZM6.5 8.66582C5.3041 8.66582 4.33418 7.6959 4.33418 6.5C4.33418 5.3041 5.3041 4.33418 6.5 4.33418C7.6959 4.33418 8.66582 5.3041 8.66582 6.5C8.66582 7.6959 7.6959 8.66582 6.5 8.66582Z" fill="#656565"/>
<path d="M10.7504 3.029C10.7504 3.46065 10.4 3.8085 9.9709 3.8085C9.53926 3.8085 9.19141 3.45811 9.19141 3.029C9.19141 2.59736 9.5418 2.24951 9.9709 2.24951C10.4 2.24951 10.7504 2.5999 10.7504 3.029Z" fill="#656565"/>
</g>
<defs>
<clipPath id="clip0_1_3351">
<rect width="13" height="13" fill="white"/>
</clipPath>
</defs>
</svg>
