<svg width="30" height="30" viewBox="0 0 30 30" fill="none" xmlns="http://www.w3.org/2000/svg">
<circle cx="15" cy="15" r="15" fill="white"/>
<path d="M11.5289 20.6264L11.4101 12.6005L8.91371 12.6374L9.03253 20.6634L11.5289 20.6264ZM10.1326 11.5454C10.9379 11.5335 11.5721 10.8529 11.5602 10.0476C11.5487 9.26918 10.8949 8.6345 10.0897 8.64642C9.31122 8.65794 8.67653 9.31171 8.68805 10.0901C8.69998 10.8954 9.35414 11.557 10.1326 11.5454ZM20.8433 20.4885L20.8702 20.4881L20.805 16.0859C20.7732 13.9385 20.2654 12.2814 17.7422 12.3188C16.5343 12.3367 15.7389 13.0196 15.3991 13.6422L15.3722 13.6426L15.356 12.542L12.967 12.5774L13.0858 20.6034L15.5821 20.5664L15.5233 16.5937C15.5078 15.5468 15.681 14.5509 16.9695 14.5318C18.2579 14.5127 18.3023 15.6934 18.3162 16.6329L18.3738 20.5251L20.8433 20.4885Z" fill="#005ABB"/>
</svg>
