<svg width="350" height="324" viewBox="0 0 350 324" fill="none" xmlns="http://www.w3.org/2000/svg">
<path d="M47.6751 252.744V264.615H11.8709V282.325H47.6751V294.1H11.8709V311.811H47.6751V323.586H0V252.744H47.6751ZM69.0235 252.744H80.8944V311.811H116.699V323.586H69.0235V252.744ZM158.821 252.744C163.799 252.744 168.394 253.701 172.702 255.52C177.01 257.339 180.84 259.924 184.095 263.179L175.67 271.507C170.979 266.912 165.331 264.615 158.821 264.615C155.47 264.615 152.407 265.189 149.535 266.434C146.663 267.678 144.078 269.306 141.972 271.507C139.77 273.614 138.047 276.103 136.803 278.975C135.558 281.847 134.888 284.91 134.888 288.165C134.888 291.42 135.558 294.483 136.803 297.355C138.047 300.227 139.77 302.716 141.876 304.918C144.078 307.024 146.567 308.748 149.439 309.992C152.407 311.141 155.47 311.811 158.821 311.811C165.331 311.811 170.883 309.513 175.67 304.918L184.095 313.247C180.84 316.502 177.01 318.991 172.702 320.81C168.394 322.725 163.799 323.586 158.821 323.586C153.843 323.586 149.248 322.725 144.94 320.81C140.536 318.895 136.803 316.406 133.548 313.247C130.197 309.992 127.612 306.259 125.793 301.951C123.879 297.643 122.921 293.047 122.921 288.165C122.921 283.378 123.879 278.879 125.793 274.571C127.612 270.263 130.197 266.434 133.548 263.179C136.803 260.019 140.536 257.435 144.94 255.52C149.248 253.701 153.843 252.744 158.821 252.744ZM230.334 252.744C240.29 252.744 248.714 256.19 255.607 263.179C262.691 270.071 266.234 278.496 266.234 288.165C266.234 298.025 262.691 306.45 255.607 313.247C248.714 320.14 240.29 323.586 230.334 323.586C220.473 323.586 212.049 320.14 205.06 313.247C198.072 306.354 194.53 298.025 194.53 288.165C194.53 278.496 198.072 270.071 205.06 263.179C211.953 256.19 220.377 252.744 230.334 252.744ZM230.334 264.615C223.824 264.615 218.176 266.912 213.389 271.507C208.794 276.198 206.496 281.751 206.496 288.165C206.496 294.675 208.794 300.227 213.389 304.918C218.176 309.513 223.824 311.811 230.334 311.811C236.844 311.811 242.492 309.513 247.183 304.918C251.778 300.227 254.171 294.675 254.171 288.165C254.171 281.751 251.778 276.198 247.183 271.507C242.492 266.912 236.844 264.615 230.334 264.615ZM290.167 281.272V323.586H278.296V252.744L314.004 288.165L349.904 252.744V323.586H337.842V281.272L314.004 304.918L290.167 281.272Z" fill="#005ABB"/>
<path fill-rule="evenodd" clip-rule="evenodd" d="M197.593 0.102635C201.039 0.485567 200.273 2.20876 199.029 3.74049L199.125 4.31489C207.166 4.88929 217.697 3.64476 220.952 7.37835C222.484 9.10154 220.186 14.4626 218.463 16.7602C218.558 15.8986 218.176 14.0797 214.921 14.0797C204.581 14.0797 199.891 20.3023 200.656 29.6841L211.283 75.4445L193.094 93.4423L175 111.44L138.813 75.4445C138.813 44.3313 158.821 -2.48216 197.593 0.102635Z" fill="#005ABB"/>
<path fill-rule="evenodd" clip-rule="evenodd" d="M175.001 170.985L226.793 222.489H123.305L175.001 170.985Z" fill="#005ABB"/>
<path fill-rule="evenodd" clip-rule="evenodd" d="M349.905 141.212V141.5V141.691C349.713 146.861 345.405 150.977 340.236 151.073H340.14C326.833 151.073 302.326 151.073 285.668 151.073V172.996H332.386V172.9H339.853H340.14C345.501 172.9 349.809 177.208 349.905 182.569V182.761V182.856V183.048C349.809 188.313 345.597 192.525 340.236 192.621H339.949H285.668H226.792L175.001 141.212L226.792 89.8038H285.668H339.949H340.236C345.597 89.8995 349.809 94.1118 349.905 99.3771V99.6643V99.8557C349.809 105.217 345.501 109.525 340.14 109.525H339.853H332.386V109.429H285.668V131.352C302.326 131.352 326.833 131.352 340.14 131.352H340.236C345.405 131.448 349.713 135.564 349.905 140.734V140.925V141.021V141.212Z" fill="#005ABB"/>
<path fill-rule="evenodd" clip-rule="evenodd" d="M0.096529 141.213V141.5L0.192262 141.691C0.383728 146.861 4.69172 150.977 9.8613 151.073C23.2639 151.073 47.7716 151.073 64.3334 151.073V172.996H17.7114V172.9H10.2442H9.95703C4.59598 172.9 0.287995 177.208 0.096529 182.569V182.761V182.857V183.048C0.287995 188.313 4.50025 192.526 9.76557 192.621H10.1485H64.3334H123.305L175.001 141.213L123.305 89.8041H64.3334H10.1485H9.76557C4.50025 89.8998 0.287995 94.1121 0.096529 99.3774V99.6646V99.856C0.287995 105.217 4.59598 109.525 9.95703 109.525H10.2442H17.7114V109.429H64.3334V131.352C47.7716 131.352 23.2639 131.352 9.8613 131.352C4.69172 131.448 0.383728 135.564 0.192262 140.734L0.096529 140.926V141.021V141.213Z" fill="#005ABB"/>
<path d="M337.747 65.1064H339.853C341.576 65.1064 342.438 64.4363 342.438 63.096C342.438 62.4259 342.151 61.9472 341.768 61.66C341.289 61.3728 340.715 61.2771 339.853 61.2771H337.747V65.1064ZM336.502 71.0418V60.224H340.045C341.193 60.224 342.055 60.5112 342.629 60.9899C343.299 61.4685 343.587 62.1387 343.587 63.096C343.587 63.7661 343.395 64.4363 343.012 64.8192C342.629 65.2978 342.151 65.6808 341.48 65.8722L343.682 71.0418H342.438L340.236 66.0637H337.747V71.0418H336.502Z" fill="#005ABB"/>
<path fill-rule="evenodd" clip-rule="evenodd" d="M339.374 55.0537C345.309 55.0537 350 59.8404 350 65.6801C350 71.5198 345.309 76.3064 339.374 76.3064C333.534 76.3064 328.747 71.5198 328.747 65.6801C328.747 59.8404 333.534 55.0537 339.374 55.0537ZM339.374 56.7769C344.352 56.7769 348.277 60.7977 348.277 65.6801C348.277 70.5625 344.352 74.5833 339.374 74.5833C334.491 74.5833 330.566 70.5625 330.566 65.6801C330.566 60.7977 334.491 56.7769 339.374 56.7769Z" fill="#005ABB"/>
</svg>
