<svg width="96" height="96" viewBox="0 0 96 96" fill="none" xmlns="http://www.w3.org/2000/svg">
<path d="M44 16H16C13.8783 16 11.8434 16.8429 10.3431 18.3431C8.84285 19.8434 8 21.8783 8 24V80C8 82.1217 8.84285 84.1566 10.3431 85.6569C11.8434 87.1571 13.8783 88 16 88H72C74.1217 88 76.1566 87.1571 77.6569 85.6569C79.1571 84.1566 80 82.1217 80 80V52" stroke="#101010" strokeWidth="2" stroke-linecap="round" stroke-linejoin="round"/>
<path d="M74 10.0001C75.5913 8.40875 77.7496 7.51477 80 7.51477C82.2504 7.51477 84.4087 8.40875 86 10.0001C87.5913 11.5914 88.4853 13.7496 88.4853 16.0001C88.4853 18.2505 87.5913 20.4088 86 22.0001L48 60.0001L32 64.0001L36 48.0001L74 10.0001Z" stroke="#101010" strokeWidth="2" stroke-linecap="round" stroke-linejoin="round"/>
</svg>
