<svg width="76" height="76" viewBox="0 0 76 76" fill="none" xmlns="http://www.w3.org/2000/svg">
<path d="M50.6667 6.33334V25.3333H69.6667" stroke="#343434" stroke-width="2" stroke-linecap="round" stroke-linejoin="round"/>
<path d="M72.8333 3.16667L50.6667 25.3333" stroke="#343434" stroke-width="2" stroke-linecap="round" stroke-linejoin="round"/>
<path d="M69.6667 53.58V63.08C69.6702 63.9619 69.4896 64.8349 69.1363 65.6429C68.783 66.451 68.2648 67.1764 67.6149 67.7726C66.965 68.3688 66.1978 68.8227 65.3624 69.1052C64.5269 69.3878 63.6417 69.4927 62.7633 69.4133C53.019 68.3545 43.6588 65.0248 35.435 59.6917C27.7838 54.8298 21.2969 48.3429 16.435 40.6917C11.0833 32.4305 7.75277 23.0248 6.71333 13.2367C6.6342 12.361 6.73827 11.4784 7.01892 10.6451C7.29956 9.81188 7.75064 9.04618 8.34342 8.3968C8.93621 7.74741 9.65771 7.22858 10.462 6.87332C11.2663 6.51806 12.1357 6.33416 13.015 6.33333H22.515C24.0518 6.3182 25.5417 6.86241 26.7069 7.86452C27.8721 8.86662 28.6332 10.2582 28.8483 11.78C29.2493 14.8202 29.9929 17.8053 31.065 20.6783C31.4911 21.8118 31.5833 23.0436 31.3307 24.2278C31.0781 25.412 30.4914 26.499 29.64 27.36L25.6183 31.3817C30.1263 39.3096 36.6904 45.8737 44.6183 50.3817L48.64 46.36C49.501 45.5086 50.588 44.9219 51.7722 44.6693C52.9564 44.4167 54.1882 44.5089 55.3217 44.935C58.1947 46.0071 61.1798 46.7507 64.22 47.1517C65.7583 47.3687 67.1631 48.1435 68.1674 49.3287C69.1716 50.514 69.7052 52.027 69.6667 53.58Z" stroke="#343434" stroke-width="2" stroke-linecap="round" stroke-linejoin="round"/>
</svg>
