<svg width="40" height="40" viewBox="0 0 40 40" fill="none" xmlns="http://www.w3.org/2000/svg">
<path d="M36.6666 28.2V33.2C36.6685 33.6642 36.5734 34.1236 36.3875 34.5489C36.2015 34.9742 35.9288 35.356 35.5868 35.6698C35.2447 35.9836 34.8409 36.2225 34.4012 36.3712C33.9615 36.5199 33.4956 36.5751 33.0333 36.5333C27.9047 35.9761 22.9783 34.2236 18.65 31.4167C14.623 28.8578 11.2089 25.4436 8.64997 21.4167C5.83327 17.0687 4.08037 12.1183 3.5333 6.96666C3.49165 6.50577 3.54643 6.04126 3.69414 5.6027C3.84185 5.16414 4.07925 4.76114 4.39125 4.41936C4.70324 4.07758 5.08298 3.8045 5.50629 3.61753C5.9296 3.43055 6.3872 3.33376 6.84997 3.33332H11.85C12.6588 3.32536 13.443 3.61179 14.0562 4.13921C14.6695 4.66663 15.0701 5.39907 15.1833 6.19999C15.3943 7.8001 15.7857 9.3712 16.35 10.8833C16.5742 11.4799 16.6227 12.1282 16.4898 12.7515C16.3569 13.3747 16.0481 13.9468 15.6 14.4L13.4833 16.5167C15.8559 20.6892 19.3107 24.1441 23.4833 26.5167L25.6 24.4C26.0531 23.9519 26.6252 23.6431 27.2485 23.5101C27.8718 23.3772 28.5201 23.4257 29.1166 23.65C30.6288 24.2142 32.1999 24.6056 33.8 24.8167C34.6096 24.9309 35.349 25.3387 35.8775 25.9625C36.4061 26.5863 36.6869 27.3826 36.6666 28.2Z" stroke="#343434" stroke-width="1.5" stroke-linecap="round" stroke-linejoin="round"/>
</svg>
