<svg width="138" height="35" viewBox="0 0 138 35" fill="none" xmlns="http://www.w3.org/2000/svg">
<g clipPath="url(#clip0_401_22)">
<path d="M54.7662 12.8339H59.0817V26.4082H54.7662V12.8339Z" fill="#343434"/>
<mask id="mask0_401_22" style="mask-type:luminance" maskUnits="userSpaceOnUse" x="0" y="0" width="138" height="35">
<path d="M0.942383 0.781628H137.573V34.2183H0.942383V0.781628Z" fill="white"/>
</mask>
<g mask="url(#mask0_401_22)">
<path d="M59.9828 12.8339H64.1394V14.6897H64.2187C65.2248 13.2315 66.5221 12.4362 68.4019 12.4362C71.3671 12.4362 73.1144 14.5572 73.1144 17.5796V26.4082H68.799V18.4546C68.799 17.0228 68.0842 16.0418 66.681 16.0418C65.2514 16.0418 64.2982 17.2349 64.2982 18.9052V26.4082H59.9828V12.8339Z" fill="#343434"/>
<path d="M59.5125 9.20229C59.5125 7.77054 58.3535 6.61002 56.9238 6.61002C55.4942 6.61002 54.3352 7.77054 54.3352 9.20229C54.3352 10.6339 55.4942 11.7944 56.9238 11.7944C58.3535 11.7944 59.5125 10.6339 59.5125 9.20229Z" fill="#343434"/>
<path d="M103.466 12.6379C103.343 12.6268 103.201 12.6219 103.036 12.6219C101.395 12.6219 100.283 13.3377 99.3298 14.955H99.2504V12.834H95.1202V26.4082H99.4357V20.3104C99.4357 17.485 100.998 16.1758 103.466 16.4042V12.6379Z" fill="#343434"/>
<path d="M124.643 17.8448C122.922 17.5267 121.387 17.3942 121.387 16.4397C121.387 15.5913 122.208 15.1936 123.267 15.1936C124.458 15.1936 125.279 15.5648 125.438 16.7844H129.409C129.197 14.1067 127.132 12.4363 123.293 12.4363C120.09 12.4363 117.442 13.921 117.442 16.7844C117.442 19.9657 119.957 20.6021 122.314 20.9998C124.114 21.318 125.755 21.4506 125.755 22.6701C125.755 23.545 124.935 24.0222 123.637 24.0222C122.336 24.0222 121.475 23.4708 121.211 22.352H117.099C117.402 25.1425 119.848 26.8325 123.664 26.8325C127.212 26.8325 129.833 25.2948 129.833 22.3255C129.833 18.8523 127.026 18.2425 124.643 17.8448Z" fill="#343434"/>
<path d="M110.16 15.5118C111.563 15.5118 112.569 16.5458 112.728 18.1632H107.38C107.671 16.5458 108.519 15.5118 110.16 15.5118ZM110.398 23.704C108.625 23.704 107.619 22.5641 107.354 20.7347H117.097C117.123 17.9775 116.329 15.6179 114.714 14.1333C113.549 13.0728 112.013 12.4364 110.081 12.4364C105.951 12.4364 103.118 15.5383 103.118 19.5948C103.118 23.704 105.871 26.8062 110.345 26.8062C112.066 26.8062 113.443 26.3554 114.582 25.56C115.773 24.7382 116.567 23.5716 116.858 22.3521H112.649C112.278 23.2005 111.537 23.704 110.398 23.704Z" fill="#343434"/>
<path d="M137.433 23.2074C137.233 23.2153 136.965 23.2269 136.718 23.2269C135.791 23.2269 135.209 22.9617 135.209 21.9012V15.5382H137.433V12.834H135.209V8.53902H130.999V12.834H129.675V15.5382H130.999V22.8292C130.999 25.7456 132.8 26.5674 135.315 26.5674C136.274 26.5674 137 26.4954 137.433 26.4108V23.2074Z" fill="#343434"/>
<path d="M80.8212 23.2136C80.649 23.2202 80.4503 23.2269 80.2646 23.2269C79.3381 23.2269 78.7556 22.9617 78.7556 21.9012V15.5382H80.8212V12.834H78.7556V8.53902H74.546V12.834H73.1423V15.5382H74.546V22.8292C74.546 25.7456 76.3463 26.5674 78.8615 26.5674C79.7125 26.5674 80.3788 26.5107 80.8212 26.4389V23.2136Z" fill="#343434"/>
<path d="M90.221 18.1632C90.0622 16.5459 89.0559 15.5118 87.6528 15.5118C86.0113 15.5118 85.1642 16.5459 84.8729 18.1632H90.221ZM80.6105 19.5948C80.6105 15.5384 83.4433 12.4366 87.5734 12.4366C89.506 12.4366 91.0417 13.0728 92.2066 14.1333C93.8216 15.618 94.6157 17.9775 94.5893 20.7349H84.8466C85.1111 22.5641 86.1172 23.7042 87.8912 23.7042C89.0295 23.7042 89.7709 23.2005 90.1414 22.3521H94.351C94.0597 23.5716 93.2656 24.7382 92.0741 25.5602C90.9358 26.3554 89.5591 26.8062 87.8382 26.8062C83.3638 26.8062 80.6105 23.7042 80.6105 19.5948Z" fill="#343434"/>
<path d="M47.2717 16.3601C48.9661 16.3601 49.9192 15.3526 49.9192 13.8412C49.9192 12.3302 48.9395 11.4022 47.2717 11.4022H43.9621V16.3601H47.2717ZM39.5931 7.45191H47.0871C49.3903 7.45191 51.0848 8.08814 52.2497 9.20171C53.4676 10.3416 54.156 11.959 54.156 13.8679C54.156 17.5 51.6408 20.0718 47.7489 20.0718H43.9621V26.4082H39.5931V7.45191Z" fill="#343434"/>
<path d="M33.6691 17.5002C33.6691 26.5112 26.3744 33.8162 17.376 33.8162C8.37761 33.8162 1.08289 26.5112 1.08289 17.5002C1.08289 8.48899 8.37761 1.18415 17.376 1.18415C26.3744 1.18415 33.6691 8.48899 33.6691 17.5002Z" fill="white"/>
<path d="M17.3758 1.18391C8.37737 1.18391 1.08264 8.48887 1.08264 17.4999C1.08264 24.4122 5.37723 30.3213 11.4381 32.6986C11.2958 31.4077 11.167 29.4223 11.4946 28.0131C11.7907 26.7397 13.4052 19.9029 13.4052 19.9029C13.4052 19.9029 12.9178 18.9255 12.9178 17.4805C12.9178 15.2118 14.231 13.518 15.866 13.518C17.2561 13.518 17.9275 14.5631 17.9275 15.8163C17.9275 17.2162 17.0375 19.3092 16.5782 21.2488C16.1943 22.8728 17.3914 24.1971 18.9909 24.1971C21.8867 24.1971 24.1128 21.1394 24.1128 16.7257C24.1128 12.8191 21.3096 10.0877 17.307 10.0877C12.671 10.0877 9.94989 13.5698 9.94989 17.1684C9.94989 18.5707 10.4893 20.0744 11.1625 20.8919C11.2956 21.0534 11.3151 21.1949 11.2755 21.3598C11.1518 21.8752 10.8769 22.9834 10.823 23.2102C10.7519 23.5089 10.5868 23.5723 10.278 23.4284C8.24314 22.4798 6.97086 19.5005 6.97086 17.1075C6.97086 11.9607 10.7052 7.23393 17.7364 7.23393C23.3885 7.23393 27.7808 11.2672 27.7808 16.6573C27.7808 22.2804 24.2403 26.8059 19.3261 26.8059C17.6751 26.8059 16.123 25.9469 15.5917 24.9323C15.5917 24.9323 14.7747 28.0476 14.5766 28.811C14.2088 30.2282 13.2158 32.0046 12.5516 33.0883C14.0761 33.561 15.6961 33.8159 17.3758 33.8159C26.3743 33.8159 33.669 26.511 33.669 17.4999C33.669 8.48887 26.3743 1.18391 17.3758 1.18391Z" fill="#343434"/>
</g>
</g>
<defs>
<clipPath id="clip0_401_22">
<rect width="136.631" height="33.4366" fill="white" transform="translate(0.942444 0.781738)"/>
</clipPath>
</defs>
</svg>
