<svg width="138" height="65" viewBox="0 0 138 65" fill="none" xmlns="http://www.w3.org/2000/svg">
<path d="M113.96 28.9654C115.296 28.9654 116.38 27.8831 116.38 26.5481C116.38 25.2131 115.296 24.1309 113.96 24.1309C112.624 24.1309 111.541 25.2131 111.541 26.5481C111.541 27.8831 112.624 28.9654 113.96 28.9654Z" fill="#343434"/>
<path d="M79.403 36.8556C80.5899 36.8556 81.2747 35.9662 81.229 35.0996C81.2062 34.6435 81.1606 34.3471 81.1149 34.119C80.3845 30.972 77.8281 28.646 74.7924 28.646C71.186 28.646 68.2644 31.907 68.2644 35.9206C68.2644 39.9342 71.186 43.1952 74.7924 43.1952C77.052 43.1952 78.6726 42.3742 79.8367 41.0744C80.4073 40.4359 80.2932 39.4553 79.6085 38.9764C79.0378 38.5887 78.3303 38.7255 77.8053 39.1588C77.3031 39.5921 76.3445 40.4587 74.7924 40.4587C72.9664 40.4587 71.4143 38.8852 71.0719 36.81H79.403V36.8556ZM74.7695 31.4053C76.413 31.4053 77.8281 32.6824 78.3531 34.4383H71.186C71.711 32.6596 73.1261 31.4053 74.7695 31.4053Z" fill="#343434"/>
<path d="M68.4014 30.0829C68.4014 29.3987 67.8993 28.8514 67.2602 28.7374C65.2744 28.4409 63.4027 29.1707 62.33 30.5161V30.3337C62.33 29.4899 61.6452 28.9654 60.9604 28.9654C60.2072 28.9654 59.5909 29.5812 59.5909 30.3337V41.5079C59.5909 42.2376 60.1387 42.8761 60.8691 42.9217C61.668 42.9673 62.33 42.3516 62.33 41.5535V35.784C62.33 33.2299 64.2473 31.1319 66.895 31.4283C66.9863 31.4283 67.0776 31.4283 67.1689 31.4283C67.8536 31.3827 68.4014 30.7898 68.4014 30.0829Z" fill="#343434"/>
<path d="M115.33 31.5423C115.33 30.7898 114.714 30.1741 113.96 30.1741C113.207 30.1741 112.591 30.7898 112.591 31.5423C112.591 31.5879 112.591 41.1202 112.591 41.5535C112.591 42.306 113.207 42.9217 113.96 42.9217C114.714 42.9217 115.33 42.306 115.33 41.5535C115.33 41.143 115.33 31.6107 115.33 31.5423Z" fill="#343434"/>
<path d="M94.9698 23.971C94.9698 23.2185 94.3535 22.6028 93.6003 22.6028C92.8471 22.6028 92.2308 23.2185 92.2308 23.971V30.0598C91.295 29.1248 90.1309 28.6687 88.7385 28.6687C85.1322 28.6687 82.2106 31.9298 82.2106 35.9433C82.2106 39.9569 85.1322 43.2179 88.7385 43.2179C90.1309 43.2179 91.3178 42.7391 92.2536 41.8041C92.3677 42.4426 92.9384 42.9215 93.6003 42.9215C94.3535 42.9215 94.9698 42.3058 94.9698 41.5532V23.971ZM88.7614 40.5042C86.6615 40.5042 84.9724 38.4746 84.9724 35.9433C84.9724 33.4349 86.6615 31.3825 88.7614 31.3825C90.8613 31.3825 92.5503 33.4121 92.5503 35.9433C92.5503 38.4746 90.8384 40.5042 88.7614 40.5042Z" fill="#343434"/>
<path d="M109.258 23.971C109.258 23.2185 108.642 22.6028 107.889 22.6028C107.136 22.6028 106.519 23.2185 106.519 23.971V30.0598C105.583 29.1248 104.419 28.6687 103.027 28.6687C99.4206 28.6687 96.499 31.9298 96.499 35.9433C96.499 39.9569 99.4206 43.2179 103.027 43.2179C104.419 43.2179 105.606 42.7391 106.542 41.8041C106.656 42.4426 107.227 42.9215 107.889 42.9215C108.642 42.9215 109.258 42.3058 109.258 41.5532V23.971ZM103.027 40.5042C100.927 40.5042 99.238 38.4746 99.238 35.9433C99.238 33.4349 100.927 31.3825 103.027 31.3825C105.127 31.3825 106.816 33.4121 106.816 35.9433C106.816 38.4746 105.127 40.5042 103.027 40.5042Z" fill="#343434"/>
<path d="M122.269 41.5762V31.4054H123.478C124.117 31.4054 124.688 30.9265 124.734 30.2652C124.779 29.5583 124.209 28.9654 123.524 28.9654H122.269V27.0498C122.269 26.3201 121.721 25.6815 120.99 25.6359C120.191 25.5903 119.53 26.206 119.53 27.0042V28.9882H118.388C117.749 28.9882 117.179 29.4671 117.133 30.1284C117.087 30.8353 117.658 31.4282 118.343 31.4282H119.507V41.599C119.507 42.3515 120.123 42.9673 120.876 42.9673C121.675 42.9216 122.269 42.3287 122.269 41.5762Z" fill="#343434"/>
<path d="M32.7943 51.61C43.3581 51.61 51.9217 43.0542 51.9217 32.5C51.9217 21.9458 43.3581 13.3899 32.7943 13.3899C22.2306 13.3899 13.6669 21.9458 13.6669 32.5C13.6669 43.0542 22.2306 51.61 32.7943 51.61Z" fill="#343434"/>
<path d="M45.5536 32.5C45.5536 30.9493 44.2982 29.7178 42.7689 29.7178C42.0157 29.7178 41.3309 30.0143 40.8288 30.4932C38.9115 29.1249 36.2866 28.2355 33.365 28.1215L34.6432 22.1468L38.7974 23.0361C38.843 24.0851 39.7104 24.9289 40.7831 24.9289C41.8788 24.9289 42.7689 24.0395 42.7689 22.9449C42.7689 21.8503 41.8788 20.9609 40.7831 20.9609C40.0071 20.9609 39.3223 21.417 39.0028 22.0784L34.3693 21.0978C34.2324 21.075 34.0954 21.0978 34.0041 21.1662C33.89 21.2346 33.8215 21.3486 33.7987 21.4854L32.3835 28.1443C29.4163 28.2355 26.7457 29.1249 24.8056 30.516C24.3034 30.0371 23.6187 29.7406 22.8655 29.7406C21.3134 29.7406 20.0808 30.9949 20.0808 32.5228C20.0808 33.663 20.7656 34.6208 21.7242 35.054C21.6786 35.3277 21.6557 35.6014 21.6557 35.8978C21.6557 40.185 26.6544 43.6741 32.8172 43.6741C38.98 43.6741 43.9787 40.2078 43.9787 35.8978C43.9787 35.6242 43.9558 35.3277 43.9102 35.054C44.8688 34.6208 45.5536 33.6402 45.5536 32.5ZM26.4262 34.4839C26.4262 33.3893 27.3164 32.5 28.412 32.5C29.5076 32.5 30.3977 33.3893 30.3977 34.4839C30.3977 35.5785 29.5076 36.4679 28.412 36.4679C27.3164 36.4907 26.4262 35.5785 26.4262 34.4839ZM37.542 39.7518C36.1725 41.12 33.5704 41.2112 32.8172 41.2112C32.0411 41.2112 29.4391 41.0972 28.0924 39.7518C27.887 39.5465 27.887 39.2272 28.0924 39.022C28.2978 38.8168 28.6174 38.8168 28.8228 39.022C29.6902 39.8886 31.5162 40.185 32.8172 40.185C34.1182 40.185 35.9671 39.8886 36.8116 39.022C37.017 38.8168 37.3366 38.8168 37.542 39.022C37.7246 39.2272 37.7246 39.5465 37.542 39.7518ZM37.1768 36.4907C36.0812 36.4907 35.191 35.6014 35.191 34.5067C35.191 33.4121 36.0812 32.5228 37.1768 32.5228C38.2724 32.5228 39.1626 33.4121 39.1626 34.5067C39.1626 35.5785 38.2724 36.4907 37.1768 36.4907Z" fill="#F2F2F2"/>
</svg>
