<svg width="137" height="43" viewBox="0 0 137 43" fill="none" xmlns="http://www.w3.org/2000/svg">
<path d="M33.1454 19.2071C26.6398 15.3394 15.909 14.9838 9.6986 16.8707C8.70127 17.1735 7.6467 16.6099 7.3445 15.6116C7.04231 14.6127 7.60471 13.5576 8.6027 13.2541C15.7318 11.0875 27.5828 11.5061 35.0722 15.9568C35.9694 16.4898 36.2637 17.6496 35.7318 18.5463C35.1997 19.4442 34.0402 19.7402 33.1454 19.2071ZM32.9323 24.9358C32.4761 25.6773 31.5078 25.9097 30.7681 25.4546C25.3444 22.117 17.0739 21.1502 10.6572 23.1C9.82513 23.3517 8.94622 22.8821 8.69356 22.0506C8.44275 21.2175 8.91215 20.3393 9.74276 20.0859C17.073 17.8592 26.1853 18.9377 32.4147 22.7702C33.1543 23.2262 33.3871 24.1962 32.9323 24.9358ZM30.4628 30.4375C30.1003 31.0328 29.3257 31.2195 28.7334 30.8566C23.9939 27.9569 18.0287 27.3018 11.0035 28.9084C10.3264 29.0638 9.6518 28.6389 9.49732 27.9614C9.34228 27.2837 9.76488 26.6084 10.4434 26.4537C18.1313 24.6943 24.726 25.4515 30.0456 28.7057C30.6387 29.0683 30.8255 29.8441 30.4628 30.4375ZM21.2071 1.29538C10.0609 1.29538 1.02481 10.341 1.02481 21.4996C1.02481 32.6592 10.0609 41.7046 21.2071 41.7046C32.3537 41.7046 41.3893 32.6592 41.3893 21.4996C41.3893 10.341 32.3537 1.29538 21.2071 1.29538Z" fill="#343434"/>
<path d="M55.9337 19.9475C52.4491 19.1155 51.8285 18.5316 51.8285 17.3051C51.8285 16.1458 52.9188 15.366 54.5398 15.366C56.1111 15.366 57.6689 15.9583 59.3027 17.1777C59.3521 17.2146 59.414 17.2293 59.475 17.2196C59.536 17.2105 59.5897 17.1772 59.6256 17.1265L61.3271 14.7254C61.397 14.6267 61.3779 14.4902 61.2837 14.4146C59.3395 12.8529 57.1503 12.0936 54.5913 12.0936C50.8288 12.0936 48.2007 14.3538 48.2007 17.5883C48.2007 21.0566 50.4678 22.2846 54.3855 23.2325C57.72 24.0014 58.2828 24.6455 58.2828 25.7973C58.2828 27.0733 57.1447 27.8666 55.3134 27.8666C53.2796 27.8666 51.6203 27.1807 49.7643 25.5717C49.7183 25.5321 49.6552 25.5138 49.5968 25.5171C49.5356 25.5222 49.4795 25.5506 49.4404 25.5977L47.5327 27.8707C47.4526 27.965 47.4628 28.1059 47.5551 28.1874C49.7147 30.1174 52.3703 31.137 55.2363 31.137C59.2906 31.137 61.9105 28.919 61.9105 25.4865C61.9105 22.5855 60.1792 20.9811 55.9337 19.9475Z" fill="#343434"/>
<path d="M74.0264 23.8356C74.0264 26.2853 72.5192 27.9946 70.361 27.9946C68.2274 27.9946 66.618 26.2076 66.618 23.8356C66.618 21.464 68.2274 19.6767 70.361 19.6767C72.4845 19.6767 74.0264 21.4254 74.0264 23.8356ZM71.0833 16.5071C69.3259 16.5071 67.8845 17.2 66.6959 18.6199V17.0217C66.6959 16.8955 66.5937 16.7928 66.4676 16.7928H63.3476C63.2216 16.7928 63.1197 16.8955 63.1197 17.0217V34.7796C63.1197 34.9058 63.2216 35.0085 63.3476 35.0085H66.4676C66.5937 35.0085 66.6959 34.9058 66.6959 34.7796V29.1745C67.8847 30.5101 69.3264 31.1625 71.0833 31.1625C74.3486 31.1625 77.6542 28.646 77.6542 23.8356C77.6542 19.0242 74.3486 16.5071 71.0833 16.5071Z" fill="#343434"/>
<path d="M86.1273 28.0201C83.8906 28.0201 82.2043 26.221 82.2043 23.8355C82.2043 21.4401 83.8323 19.7017 86.0757 19.7017C88.3269 19.7017 90.0245 21.5008 90.0245 23.8878C90.0245 26.283 88.3855 28.0201 86.1273 28.0201ZM86.1273 16.507C81.9221 16.507 78.6276 19.7487 78.6276 23.8878C78.6276 27.982 81.8994 31.1897 86.0757 31.1897C90.2959 31.1897 93.6005 27.9589 93.6005 23.8355C93.6005 19.726 90.3186 16.507 86.1273 16.507Z" fill="#343434"/>
<path d="M102.581 16.7928H99.1472V13.2784C99.1472 13.1523 99.0455 13.0497 98.9194 13.0497H95.7997C95.6734 13.0497 95.5707 13.1523 95.5707 13.2784V16.7928H94.0705C93.9447 16.7928 93.8432 16.8955 93.8432 17.0217V19.7063C93.8432 19.8324 93.9447 19.9351 94.0705 19.9351H95.5707V26.8816C95.5707 29.6889 96.9663 31.1121 99.7188 31.1121C100.838 31.1121 101.767 30.8807 102.642 30.3839C102.713 30.3441 102.757 30.2674 102.757 30.1858V27.6294C102.757 27.5504 102.716 27.4762 102.649 27.4347C102.581 27.392 102.496 27.3898 102.426 27.4243C101.825 27.727 101.244 27.8668 100.595 27.8668C99.594 27.8668 99.1472 27.412 99.1472 26.3921V19.9351H102.581C102.707 19.9351 102.808 19.8324 102.808 19.7063V17.0217C102.808 16.8955 102.707 16.7928 102.581 16.7928Z" fill="#343434"/>
<path d="M114.543 16.8064V16.3748C114.543 15.105 115.03 14.5387 116.12 14.5387C116.771 14.5387 117.293 14.6681 117.879 14.8635C117.951 14.8862 118.026 14.8748 118.084 14.8316C118.145 14.7885 118.179 14.7192 118.179 14.6459V12.0136C118.179 11.913 118.114 11.824 118.017 11.7945C117.399 11.6105 116.608 11.4213 115.424 11.4213C112.542 11.4213 111.019 13.046 111.019 16.1181V16.7792H109.52C109.394 16.7792 109.291 16.8817 109.291 17.0079V19.7062C109.291 19.8323 109.394 19.935 109.52 19.935H111.019V30.6497C111.019 30.7759 111.12 30.8785 111.246 30.8785H114.366C114.492 30.8785 114.595 30.7759 114.595 30.6497V19.935H117.508L121.971 30.6469C121.464 31.7724 120.966 31.9963 120.286 31.9963C119.736 31.9963 119.157 31.8319 118.565 31.5077C118.51 31.477 118.444 31.472 118.384 31.4906C118.324 31.5118 118.274 31.556 118.249 31.6141L117.191 33.9368C117.141 34.0465 117.184 34.1754 117.289 34.2324C118.393 34.8309 119.39 35.0864 120.622 35.0864C122.926 35.0864 124.199 34.0118 125.322 31.1214L130.735 17.1181C130.762 17.0477 130.754 16.9683 130.711 16.9056C130.668 16.8438 130.599 16.8064 130.523 16.8064H127.275C127.178 16.8064 127.091 16.8682 127.059 16.9596L123.731 26.4748L120.087 16.9534C120.053 16.8648 119.968 16.8064 119.874 16.8064H114.543Z" fill="#343434"/>
<path d="M107.608 16.7929H104.488C104.362 16.7929 104.26 16.8957 104.26 17.0219V30.6499C104.26 30.7761 104.362 30.8787 104.488 30.8787H107.608C107.734 30.8787 107.837 30.7761 107.837 30.6499V17.0219C107.837 16.8957 107.734 16.7929 107.608 16.7929Z" fill="#343434"/>
<path d="M106.064 10.5875C104.828 10.5875 103.825 11.5895 103.825 12.8267C103.825 14.0649 104.828 15.0679 106.064 15.0679C107.3 15.0679 108.302 14.0649 108.302 12.8267C108.302 11.5895 107.3 10.5875 106.064 10.5875Z" fill="#343434"/>
<path d="M133.526 18.1483H132.955V18.8781H133.526C133.812 18.8781 133.982 18.7383 133.982 18.513C133.982 18.2756 133.812 18.1483 133.526 18.1483ZM133.897 19.1894L134.518 20.06H133.995L133.435 19.2615H132.955V20.06H132.516V17.7524H133.544C134.08 17.7524 134.432 18.0268 134.432 18.4885C134.432 18.8667 134.214 19.0979 133.897 19.1894ZM133.41 16.9847C132.286 16.9847 131.434 17.8796 131.434 18.9758C131.434 20.0714 132.28 20.9544 133.399 20.9544C134.523 20.9544 135.375 20.06 135.375 18.9633C135.375 17.8677 134.53 16.9847 133.41 16.9847ZM133.399 21.1743C132.164 21.1743 131.203 20.1814 131.203 18.9758C131.203 17.77 132.176 16.7659 133.41 16.7659C134.645 16.7659 135.606 17.7587 135.606 18.9633C135.606 20.1691 134.633 21.1743 133.399 21.1743Z" fill="#343434"/>
</svg>
