<svg width="138" height="67" viewBox="0 0 138 67" fill="none" xmlns="http://www.w3.org/2000/svg">
<path fillRule="evenodd" clipRule="evenodd" d="M121.279 34.1294C121.279 26.6361 117.659 20.7234 110.74 20.7234C103.792 20.7234 99.5878 26.6361 99.5878 34.0708C99.5878 42.8813 104.551 47.3305 111.674 47.3305C115.149 47.3305 117.776 46.5402 119.761 45.4279V39.5737C117.776 40.5689 115.499 41.1836 112.609 41.1836C109.777 41.1836 107.266 40.1884 106.945 36.7345H121.221C121.221 36.354 121.279 34.8319 121.279 34.1294ZM106.857 31.3487C106.857 28.0411 108.872 26.6653 110.711 26.6653C112.492 26.6653 114.389 28.0411 114.389 31.3487H106.857Z" fill="#343434"/>
<path fillRule="evenodd" clipRule="evenodd" d="M88.3187 20.7234C85.4576 20.7234 83.6183 22.0698 82.5965 23.0065L82.217 21.1917H75.7942V55.3214L83.0928 53.77L83.122 45.4864C84.173 46.2475 85.7204 47.3305 88.2895 47.3305C93.5153 47.3305 98.274 43.1155 98.274 33.8367C98.2449 25.3482 93.4277 20.7234 88.3187 20.7234ZM86.567 40.8909C84.8445 40.8909 83.8227 40.2762 83.122 39.5152L83.0928 28.6558C83.8519 27.8069 84.9029 27.2215 86.567 27.2215C89.2237 27.2215 91.063 30.2071 91.063 34.0416C91.063 37.9638 89.2529 40.8909 86.567 40.8909Z" fill="#343434"/>
<path fillRule="evenodd" clipRule="evenodd" d="M65.7513 18.9962L73.0791 17.4156V11.4736L65.7513 13.025V18.9962Z" fill="#343434"/>
<path d="M73.0791 21.2209H65.7513V46.8328H73.0791V21.2209Z" fill="#343434"/>
<path fillRule="evenodd" clipRule="evenodd" d="M57.8978 23.3868L57.4307 21.2208H51.1247V46.8327H58.4234V29.4751C60.1458 27.2213 63.0653 27.6311 63.9703 27.953V21.2208C63.0361 20.8695 59.6203 20.2256 57.8978 23.3868Z" fill="#343434"/>
<path fillRule="evenodd" clipRule="evenodd" d="M43.3006 14.8691L36.1771 16.3912L36.1479 39.8371C36.1479 44.1691 39.3886 47.3596 43.7094 47.3596C46.1033 47.3596 47.855 46.9206 48.8184 46.3937V40.4518C47.8842 40.8323 43.2714 42.1787 43.2714 37.8467V27.4556H48.8184V21.2209H43.2714L43.3006 14.8691Z" fill="#343434"/>
<path fillRule="evenodd" clipRule="evenodd" d="M23.565 28.6558C23.565 27.5142 24.4992 27.0751 26.0466 27.0751C28.2653 27.0751 31.068 27.7484 33.2868 28.9485V22.0698C30.8637 21.1039 28.4697 20.7234 26.0466 20.7234C20.12 20.7234 16.1788 23.8261 16.1788 29.007C16.1788 37.0857 27.2727 35.7978 27.2727 39.281C27.2727 40.6275 26.1049 41.0665 24.47 41.0665C22.0469 41.0665 18.9523 40.0713 16.4999 38.7249V45.6913C19.215 46.8621 21.9593 47.3598 24.47 47.3598C30.5425 47.3598 34.7174 44.3449 34.7174 39.1054C34.6882 30.3827 23.565 31.9341 23.565 28.6558Z" fill="#343434"/>
</svg>
