<svg width="80" height="80" viewBox="0 0 80 80" fill="none" xmlns="http://www.w3.org/2000/svg">
<path d="M49 21C48.3893 21.6231 48.0471 22.4608 48.0471 23.3333C48.0471 24.2059 48.3893 25.0436 49 25.6667L54.3333 31C54.9564 31.6108 55.7942 31.9529 56.6667 31.9529C57.5392 31.9529 58.3769 31.6108 59 31L71.5667 18.4333C73.2428 22.1373 73.7503 26.2641 73.0215 30.2638C72.2928 34.2635 70.3624 37.9462 67.4876 40.8209C64.6128 43.6957 60.9302 45.6261 56.9305 46.3549C52.9308 47.0836 48.804 46.5761 45.1 44.9L22.0667 67.9333C20.7406 69.2594 18.942 70.0044 17.0667 70.0044C15.1913 70.0044 13.3928 69.2594 12.0667 67.9333C10.7406 66.6073 9.99561 64.8087 9.99561 62.9333C9.99561 61.058 10.7406 59.2594 12.0667 57.9333L35.1 34.9C33.4239 31.1961 32.9164 27.0692 33.6451 23.0695C34.3739 19.0698 36.3043 15.3872 39.1791 12.5124C42.0539 9.63764 45.7365 7.70724 49.7362 6.97849C53.7359 6.24973 57.8627 6.75723 61.5667 8.43335L49.0333 20.9667L49 21Z" stroke="#333333" stroke-width="2" stroke-linecap="round" stroke-linejoin="round"/>
</svg>
