<svg width="776" height="296" viewBox="0 0 776 296" fill="none" xmlns="http://www.w3.org/2000/svg">
<path opacity="0.02" fillRule="evenodd" clipRule="evenodd" d="M43.4622 288.823L112.005 306.985L25 357.217L43.4622 288.823Z" fill="#FEFEFE"/>
<path opacity="0.04" fillRule="evenodd" clipRule="evenodd" d="M158.705 319.227L114 293.582L184.533 274.683L158.705 319.227Z" fill="#FEFEFE"/>
<path opacity="0.04" fillRule="evenodd" clipRule="evenodd" d="M251.303 226.383L272.511 304.661L173 247.209L251.303 226.383Z" fill="#FEFEFE"/>
<path opacity="0.05" fillRule="evenodd" clipRule="evenodd" d="M318.164 121.472L421.146 180.547L258.667 224.083L318.164 121.472Z" fill="#FEFEFE"/>
<path opacity="0.07" fillRule="evenodd" clipRule="evenodd" d="M499.139 183.395L366 118.397L564.692 50.6829L499.139 183.395Z" fill="#FEFEFE"/>
<path opacity="0.12" fillRule="evenodd" clipRule="evenodd" d="M684.245 -99.8502L883.466 14.4331L569.147 98.6548L684.245 -99.8502Z" fill="#FEFEFE"/>
<path opacity="0.12" fillRule="evenodd" clipRule="evenodd" d="M704.092 273.368L626.024 111.683L865.987 196.122L704.092 273.368Z" fill="#FEFEFE"/>
<path opacity="0.12" fillRule="evenodd" clipRule="evenodd" d="M564.838 303.953L482 224.244L644.98 221.684L564.838 303.953Z" fill="#FEFEFE"/>
<path opacity="0.12" fillRule="evenodd" clipRule="evenodd" d="M677.181 373.838L563 387.185L664.55 259.683L677.181 373.838Z" fill="#FEFEFE"/>
<path opacity="0.05" fillRule="evenodd" clipRule="evenodd" d="M462.081 278.769L372 293.448L447.969 188.683L462.081 278.769Z" fill="#FEFEFE"/>
<path opacity="0.05" fillRule="evenodd" clipRule="evenodd" d="M348.383 277.918L287 263.362L363.302 216.683L348.383 277.918Z" fill="#FEFEFE"/>
<path opacity="0.12" fillRule="evenodd" clipRule="evenodd" d="M563.063 189.726L562.84 126.642L626.089 189.891L563.063 189.726Z" fill="#FEFEFE"/>
</svg>
