<svg width="12" height="11" viewBox="0 0 12 11" fill="none" xmlns="http://www.w3.org/2000/svg">
<path d="M10.6891 2.89436C11.1338 2.55039 11.5326 2.13962 11.8404 1.66272C11.4383 1.84861 10.9681 1.99053 10.4965 2.04249C10.9869 1.74283 11.34 1.28776 11.5116 0.722906C11.0659 0.999414 10.5517 1.20946 10.0361 1.32955C9.57936 0.863975 8.96821 0.603114 8.29358 0.613101C6.98931 0.632411 5.94804 1.70497 5.96735 3.00925C5.97001 3.18915 5.99517 3.36871 6.0428 3.54795C4.08473 3.46447 2.31672 2.54597 1.1264 1.14657C0.929002 1.48688 0.822557 1.89332 0.829216 2.34307C0.841201 3.15261 1.25663 3.86622 1.91509 4.28383C1.53247 4.267 1.14885 4.18271 0.831365 4.00747L0.831698 4.02996C0.848677 5.17682 1.67221 6.10931 2.75494 6.31821C2.5757 6.36584 2.3515 6.41415 2.14911 6.41715C1.9917 6.41948 1.85644 6.39899 1.69869 6.37883C2.00501 7.31898 2.89201 7.98062 3.92677 7.98779C3.12654 8.62942 2.12026 9.02669 1.01838 9.04301C0.81599 9.046 0.635757 9.02618 0.455524 9.00636C1.49994 9.66567 2.74241 10.0296 4.09166 10.0097C8.43175 9.94541 10.74 6.33494 10.6937 3.20918C10.6921 3.09674 10.6907 3.00679 10.6891 2.89436Z" fill="#656565"/>
</svg>
