<svg width="80" height="82" viewBox="0 0 80 82" fill="none" xmlns="http://www.w3.org/2000/svg">
<path d="M33.617 5.25458L2.00045 67.7423C1.34859 69.0788 1.00368 70.5941 1.00003 72.1373C0.996379 73.6806 1.33412 75.1981 1.97965 76.5389C2.62518 77.8797 3.55599 78.997 4.67949 79.7796C5.80298 80.5623 7.08 80.983 8.38348 81H71.6165C72.92 80.983 74.197 80.5623 75.3205 79.7796C76.444 78.997 77.3748 77.8797 78.0204 76.5389C78.6659 75.1981 79.0036 73.6806 79 72.1373C78.9963 70.5941 78.6514 69.0788 77.9995 67.7423L46.383 5.25458C45.7176 3.9558 44.7806 2.88198 43.6626 2.13675C42.5445 1.39151 41.2831 1 40 1C38.7169 1 37.4555 1.39151 36.3374 2.13675C35.2194 2.88198 34.2824 3.9558 33.617 5.25458V5.25458Z" stroke="#333333" stroke-width="2" stroke-linecap="round" stroke-linejoin="round"/>
</svg>
